<?xml version="1.0" encoding="UTF-8" standalone="no"?>
<svg
   xmlns:dc="http://purl.org/dc/elements/1.1/"
   xmlns:cc="http://creativecommons.org/ns#"
   xmlns:rdf="http://www.w3.org/1999/02/22-rdf-syntax-ns#"
   xmlns:svg="http://www.w3.org/2000/svg"
   xmlns="http://www.w3.org/2000/svg"
   xmlns:sodipodi="http://sodipodi.sourceforge.net/DTD/sodipodi-0.dtd"
   xmlns:inkscape="http://www.inkscape.org/namespaces/inkscape"
   aria-hidden="true"
   focusable="false"
   data-prefix="fas"
   data-icon="external-link-alt"
   class="svg-inline--fa fa-external-link-alt fa-w-16"
   role="img"
   viewBox="0 0 512 512"
   version="1.1"
   id="svg4"
   sodipodi:docname="web.svg"
   inkscape:version="1.0.1 (3bc2e813f5, 2020-09-07)">
  <metadata
     id="metadata10">
    <rdf:RDF>
      <cc:Work
         rdf:about="">
        <dc:format>image/svg+xml</dc:format>
        <dc:type
           rdf:resource="http://purl.org/dc/dcmitype/StillImage" />
      </cc:Work>
    </rdf:RDF>
  </metadata>
  <defs
     id="defs8" />
  <sodipodi:namedview
     pagecolor="#ffffff"
     bordercolor="#666666"
     borderopacity="1"
     objecttolerance="10"
     gridtolerance="10"
     guidetolerance="10"
     inkscape:pageopacity="0"
     inkscape:pageshadow="2"
     inkscape:window-width="2560"
     inkscape:window-height="1376"
     id="namedview6"
     showgrid="false"
     inkscape:zoom="2.0039062"
     inkscape:cx="256"
     inkscape:cy="295.92203"
     inkscape:window-x="0"
     inkscape:window-y="27"
     inkscape:window-maximized="1"
     inkscape:current-layer="svg4" />
  <circle
     style="fill:#000000;stroke-width:8;stroke-linecap:round;stroke-linejoin:round;paint-order:fill markers stroke;stop-color:#000000"
     id="path835"
     cx="256.35547"
     cy="257.03952"
     r="256" />
  <path
     fill="currentColor"
     d="m 368.15413,296.78332 h -20.39166 a 10.19583,10.19583 0 0 0 -10.19583,10.19583 v 71.37081 h -203.9166 v -203.9166 h 91.76247 a 10.19583,10.19583 0 0 0 10.19583,-10.19583 v -20.39166 a 10.19583,10.19583 0 0 0 -10.19583,-10.19583 h -101.9583 a 30.587491,30.587491 0 0 0 -30.587495,30.58749 v 224.30826 a 30.587491,30.587491 0 0 0 30.587495,30.58749 h 224.30826 a 30.587491,30.587491 0 0 0 30.58749,-30.58749 V 306.97915 A 10.19583,10.19583 0 0 0 368.15413,296.78332 Z M 403.83954,92.866715 H 322.2729 c -13.61781,0 -20.42353,16.510875 -10.83307,26.126815 l 22.76856,22.76856 -155.31436,155.25701 a 15.293745,15.293745 0 0 0 0,21.66614 l 14.44622,14.42073 a 15.293745,15.293745 0 0 0 21.66614,0 l 155.23789,-155.2825 22.76219,22.7367 c 9.55859,9.55859 26.12681,2.86758 26.12681,-10.83307 V 108.16046 A 15.293745,15.293745 0 0 0 403.83954,92.866715 Z"
     id="path2"
     style="fill:#ffffff;stroke-width:1" />
</svg>
