<?xml version="1.0" encoding="UTF-8" standalone="no"?>
<svg
   xmlns:dc="http://purl.org/dc/elements/1.1/"
   xmlns:cc="http://creativecommons.org/ns#"
   xmlns:rdf="http://www.w3.org/1999/02/22-rdf-syntax-ns#"
   xmlns:svg="http://www.w3.org/2000/svg"
   xmlns="http://www.w3.org/2000/svg"
   xmlns:sodipodi="http://sodipodi.sourceforge.net/DTD/sodipodi-0.dtd"
   xmlns:inkscape="http://www.inkscape.org/namespaces/inkscape"
   version="1"
   width="327.92032"
   height="219.61896"
   viewBox="0 0 3279.2032 2196.1896"
   id="svg8"
   sodipodi:docname="appwrite.svg"
   inkscape:version="1.0.1 (3bc2e813f5, 2020-09-07)">
  <metadata
     id="metadata14">
    <rdf:RDF>
      <cc:Work
         rdf:about="">
        <dc:format>image/svg+xml</dc:format>
        <dc:type
           rdf:resource="http://purl.org/dc/dcmitype/StillImage" />
        <dc:title></dc:title>
      </cc:Work>
    </rdf:RDF>
  </metadata>
  <defs
     id="defs12" />
  <sodipodi:namedview
     pagecolor="#ffffff"
     bordercolor="#666666"
     borderopacity="1"
     objecttolerance="10"
     gridtolerance="10"
     guidetolerance="10"
     inkscape:pageopacity="0"
     inkscape:pageshadow="2"
     inkscape:window-width="1920"
     inkscape:window-height="1043"
     id="namedview10"
     showgrid="false"
     fit-margin-top="0"
     fit-margin-left="0"
     fit-margin-right="0"
     fit-margin-bottom="0"
     inkscape:zoom="0.58468892"
     inkscape:cx="902.87764"
     inkscape:cy="-49.837323"
     inkscape:window-x="2560"
     inkscape:window-y="360"
     inkscape:window-maximized="1"
     inkscape:current-layer="g6" />
  <g
     fill="#f02e65"
     id="g6"
     transform="translate(-5.796875,-330)">
    <path
       d="M 885,2518 C 684,2467 558,2410 425,2310 399,2290 251,2142 225,2110 148,2014 75,1871 34,1735 7,1649 6,1635 6,1435 5,1245 7,1217 28,1146 53,1059 89,970 122,913 133,892 148,866 154,855 210,755 351,604 461,527 657,390 849,330 1095,330 c 192,0 356,37 494,111 l 54,28 72,-34 c 160,-77 288,-105 480,-105 255,0 460,66 657,212 108,81 278,269 278,308 0,4 3,10 8,12 17,7 82,149 114,248 l 33,105 v 430 l -33,105 c -32,100 -101,249 -139,299 -48,63 -132,160 -173,199 -62,58 -192,145 -281,186 -165,76 -239,91 -464,91 -227,0 -317,-19 -482,-99 l -68,-34 -57,29 c -161,81 -257,102 -483,105 -99,1 -198,-2 -220,-8 z m 343,-233 c 103,-15 135,-25 242,-77 87,-42 143,-81 214,-147 280,-265 355,-660 190,-999 -25,-52 -50,-100 -55,-106 -126,-159 -213,-235 -334,-295 -160,-79 -189,-86 -385,-86 -158,0 -182,2 -245,24 -146,49 -258,116 -353,210 -69,68 -152,175 -152,196 0,7 -3,15 -7,17 -5,2 -18,23 -29,48 -106,222 -106,484 -1,720 61,138 205,301 333,376 98,59 218,103 315,119 114,17 153,17 267,0 z"
       id="path2"
       sodipodi:nodetypes="cccccccccscccscsccccccccscccccccccccsccscccccc" />
    <path
       d="m 968,1704 c -3,-3 -2,-22 3,-42 15,-60 39,-161 59,-247 10,-44 25,-109 34,-145 8,-36 20,-85 26,-110 5,-25 15,-64 21,-87 l 12,-43 h 53 c 30,0 54,3 54,8 -1,9 -14,68 -35,152 -8,36 -24,103 -35,150 -11,47 -26,112 -34,145 -8,33 -21,89 -29,125 -23,100 -23,100 -76,100 -26,0 -50,-2 -53,-6 z m -192,-244 -67,-71 62,-69 62,-70 h 68 c 38,0 69,3 69,8 0,4 -19,28 -42,53 -79,84 -78,72 -14,138 31,33 56,64 56,70 0,7 -25,11 -63,11 h -64 z m 444,59 c 0,-6 25,-37 56,-70 64,-66 65,-55 -13,-138 -24,-26 -43,-49 -43,-53 0,-5 31,-8 69,-8 h 68 l 62,70 c 60,67 61,70 44,88 -10,10 -40,42 -66,70 l -49,52 h -64 c -39,0 -64,-4 -64,-11 z"
       id="path4"
       sodipodi:nodetypes="cscccccsccsscscccccssccssccsccsscccccss" />
  </g>
</svg>
