<?xml version="1.0" encoding="UTF-8" standalone="no"?>
<svg
   xmlns:dc="http://purl.org/dc/elements/1.1/"
   xmlns:cc="http://creativecommons.org/ns#"
   xmlns:rdf="http://www.w3.org/1999/02/22-rdf-syntax-ns#"
   xmlns:svg="http://www.w3.org/2000/svg"
   xmlns="http://www.w3.org/2000/svg"
   xmlns:xlink="http://www.w3.org/1999/xlink"
   xmlns:sodipodi="http://sodipodi.sourceforge.net/DTD/sodipodi-0.dtd"
   xmlns:inkscape="http://www.inkscape.org/namespaces/inkscape"
   viewBox="23 6 95.3853 131.06523"
   version="1.1"
   id="svg28"
   sodipodi:docname="firebase.svg"
   width="95.3853"
   height="131.06523"
   inkscape:version="1.0.1 (3bc2e813f5, 2020-09-07)">
  <metadata
     id="metadata32">
    <rdf:RDF>
      <cc:Work
         rdf:about="">
        <dc:format>image/svg+xml</dc:format>
        <dc:type
           rdf:resource="http://purl.org/dc/dcmitype/StillImage" />
        <dc:title></dc:title>
      </cc:Work>
    </rdf:RDF>
  </metadata>
  <sodipodi:namedview
     pagecolor="#ffffff"
     bordercolor="#666666"
     borderopacity="1"
     objecttolerance="10"
     gridtolerance="10"
     guidetolerance="10"
     inkscape:pageopacity="0"
     inkscape:pageshadow="2"
     inkscape:window-width="1920"
     inkscape:window-height="1043"
     id="namedview30"
     showgrid="false"
     fit-margin-top="0"
     fit-margin-left="0"
     fit-margin-right="0"
     fit-margin-bottom="0"
     inkscape:zoom="1.4104478"
     inkscape:cx="258.06704"
     inkscape:cy="164.74667"
     inkscape:window-x="2560"
     inkscape:window-y="360"
     inkscape:window-maximized="1"
     inkscape:current-layer="svg28" />
  <defs
     id="defs12">
    <linearGradient
       id="a"
       x1="24.289503"
       x2="140.66587"
       y1="24.096534"
       y2="108.74606"
       gradientTransform="matrix(0.85158188,0,0,1.1742852,0.7813,-0.03022639)"
       gradientUnits="userSpaceOnUse">
      <stop
         offset="0%"
         stop-color="#fff"
         stop-opacity=".1"
         id="stop2" />
      <stop
         offset="14%"
         stop-color="#fff"
         stop-opacity=".08"
         id="stop4" />
      <stop
         offset="61%"
         stop-color="#fff"
         stop-opacity=".02"
         id="stop6" />
      <stop
         offset="100%"
         stop-color="#fff"
         stop-opacity="0"
         id="stop8" />
    </linearGradient>
    <path
       id="b"
       d="m 106.687,35.2742 c -0.186,-1.0977 -0.967,-2 -2.0244,-2.338 -1.0574,-0.338 -2.2148,-0.057 -3.0002,0.73 L 86.2473,49.166 74.1273,26.0205 C 73.614,25.0419 72.6023,24.4291 71.5,24.4291 c -1.1023,0 -2.114,0.6128 -2.6273,1.5914 L 62.245,38.6765 45.62,7.5726 C 45.017,6.4429 43.7612,5.8266 42.502,6.0429 41.2428,6.2592 40.2626,7.2589 40.0685,8.5256 L 24,111.701 66.9727,135.8664 c 2.6985,1.5113 5.985,1.5113 8.6836,0 L 119,111.701 106.687,35.274 Z" />
  </defs>
  <path
     fill="#ffa000"
     d="M 23.052,111.74893 39.1842,8.5208264 c 0.1972,-1.266 1.1818,-2.264 2.445,-2.4786 1.2632,-0.2146 2.522,0.4028 3.126,1.5327 l 16.6835,31.1172996 6.65,-12.6615 c 0.515,-0.979 1.5303,-1.592 2.6366,-1.592 1.1063,0 2.1215,0.613 2.6366,1.592 l 45.0227,85.718004 H 23.052 Z"
     id="path16" />
  <path
     fill="#f57c00"
     d="M 78.7847,71.537626 61.4311,38.677426 23.0521,111.74893 Z"
     id="path18" />
  <path
     fill="#ffca28"
     d="m 118.3853,111.74893 -12.356,-76.460304 c -0.1867,-1.098 -0.9703,-2 -2.0315,-2.34 -1.0612,-0.34 -2.2226,-0.057 -3.0107,0.7302 l -77.935,78.069004 43.1234,24.1834 c 2.708,1.512 6.006,1.512 8.714,0 l 43.4958,-24.1834 z"
     id="path20" />
  <path
     fill="#ffffff"
     fill-opacity="0.2"
     d="m 106.0292,35.288626 c -0.1867,-1.098 -0.9703,-2 -2.0315,-2.34 -1.0612,-0.34 -2.2226,-0.057 -3.0107,0.7302 l -15.4683,15.5076 -12.1635,-23.1562 c -0.515,-0.979 -1.5303,-1.592 -2.6366,-1.592 -1.1063,0 -2.1215,0.613 -2.6366,1.592 l -6.65,12.6615 L 44.7477,7.5749264 c -0.605,-1.1302 -1.8653,-1.7466 -3.13,-1.5304 -1.2647,0.2162 -2.246,1.2167 -2.441,2.4837 L 23.052,111.74893 H 23 l 0.052,0.0596 0.4245,0.2085 77.488,-77.577504 c 0.7877,-0.7915 1.952,-1.076 3.016,-0.737 1.064,0.339 1.849,1.2445 2.0338,2.3457 l 12.2518,75.775004 0.1192,-0.0745 -12.356,-76.460304 z M 23.1935,111.60743 39.1842,9.2582264 c 0.1948,-1.267 1.1784,-2.2675 2.442,-2.4837 1.2636,-0.2162 2.524,0.4 3.13,1.5304 l 16.6825,31.1172996 6.65,-12.6615 c 0.515,-0.979 1.5303,-1.592 2.6366,-1.592 1.1063,0 2.1215,0.613 2.6366,1.592 l 11.9167,22.664 -62.0858,62.182704 z"
     id="path22" />
  <path
     fill="#a52714"
     opacity="0.2"
     d="m 74.8895,135.20243 c -2.708,1.512 -6.006,1.512 -8.714,0 l -43.0192,-24.1162 -0.1043,0.663 43.1234,24.176 c 2.708,1.512 6.006,1.512 8.714,0 l 43.4958,-24.176 -0.1117,-0.6852 -43.384,24.1387 z"
     id="path24" />
  <use
     fill="url(#a)"
     xlink:href="#b"
     id="use26"
     x="0"
     y="0"
     width="100%"
     height="100%"
     style="fill:url(#a)"
     transform="translate(-0.7813,0.03022639)" />
</svg>
